<?xml version="1.0" encoding="UTF-8"?>
<svg width="17px" height="13px" viewBox="0 0 17 13" version="1.1" xmlns="http://www.w3.org/2000/svg" xmlns:xlink="http://www.w3.org/1999/xlink">
    <title>Path</title>
    <g id="Page-1" stroke="none" stroke-width="1" fill="none" fill-rule="evenodd">
        <g id="categorie-generali-copy" transform="translate(-329.000000, -67.000000)" fill="#FFFFFF" fill-rule="nonzero">
            <path d="M329.375789,74.3927711 L334.618947,79.6375215 C335.102105,80.1208262 335.907368,80.1208262 336.390526,79.6375215 C336.873684,79.1542169 336.873684,78.3487091 336.390526,77.8654045 L333.294737,74.7507745 L344.747368,74.7507745 C345.445263,74.7507745 346,74.1958692 346,73.4977625 C346,72.7996558 345.445263,72.2447504 344.747368,72.2447504 L333.294737,72.2447504 L336.390526,69.1480207 C336.873684,68.664716 336.873684,67.8592083 336.390526,67.3759036 C336.14,67.1253012 335.817895,67 335.495789,67 C335.173684,67 334.851579,67.1253012 334.601053,67.3759036 L329.375789,72.6027539 C329.143158,72.8354561 329,73.1576592 329,73.4977625 C329,73.8378657 329.125263,74.1600688 329.375789,74.3927711 Z" id="Path" transform="translate(337.500000, 73.500000) scale(-1, -1) translate(-337.500000, -73.500000) "></path>
        </g>
    </g>
</svg>