<?xml version="1.0" encoding="UTF-8"?>
<svg width="18px" height="18px" viewBox="0 0 18 18" version="1.1" xmlns="http://www.w3.org/2000/svg" xmlns:xlink="http://www.w3.org/1999/xlink">
    <title>Path</title>
    <g id="Symbols" stroke="none" stroke-width="1" fill="none" fill-rule="evenodd" opacity="0.7">
        <g id="assistenza/default" transform="translate(-18.000000, 0.000000)" fill="#FFFFFF" fill-rule="nonzero">
            <path d="M36,10.5477707 C36,9.15286624 35.1284211,7.98726115 33.9157895,7.52866242 L33.9157895,6.97452229 C33.9157895,3.13375796 30.8084211,0 27,0 C23.1915789,0 20.0842105,3.13375796 20.0842105,6.97452229 L20.0842105,7.52866242 C18.8715789,7.98726115 18,9.17197452 18,10.5477707 C18,12.3248408 19.44,13.7770701 21.2021053,13.7770701 L22.3578947,13.7770701 C22.6610526,13.7770701 22.9073684,13.5286624 22.9073684,13.2229299 L22.9073684,7.87261146 C22.9073684,7.56687898 22.6610526,7.31847134 22.3578947,7.31847134 L21.8273684,7.31847134 L21.8273684,6.97452229 C21.8273684,4.08917197 24.1578947,1.75796178 27,1.75796178 C29.8421053,1.75796178 32.1726316,4.10828025 32.1726316,6.97452229 L32.1726316,7.31847134 L31.6421053,7.31847134 C31.3389474,7.31847134 31.0926316,7.56687898 31.0926316,7.87261146 L31.0926316,13.2229299 C31.0926316,13.5286624 31.3389474,13.7770701 31.6421053,13.7770701 L31.8884211,13.7770701 C31.3389474,15.0573248 30.1263158,15.955414 28.6863158,16.0700637 C28.6105263,15.7070064 28.2884211,15.4203822 27.8905263,15.4203822 L26.0905263,15.4203822 C25.6357895,15.4203822 25.2757895,15.7834395 25.2757895,16.2420382 L25.2757895,17.1783439 C25.2757895,17.6369427 25.6357895,18 26.0905263,18 L27.8905263,18 C28.2884211,18 28.6294737,17.7133758 28.6863158,17.3121019 C30.8273684,17.1974522 32.6084211,15.7261146 33.2147368,13.7388535 C34.7873684,13.5286624 36,12.1719745 36,10.5477707 Z" id="Path"></path>
        </g>
    </g>
</svg>