<?xml version="1.0" encoding="UTF-8"?>
<svg width="19px" height="18px" viewBox="0 0 19 18" version="1.1" xmlns="http://www.w3.org/2000/svg" xmlns:xlink="http://www.w3.org/1999/xlink">
    <title>Shape</title>
    <g id="Symbols" stroke="none" stroke-width="1" fill="none" fill-rule="evenodd" opacity="0.7">
        <g id="esplora/default" transform="translate(-10.000000, 0.000000)" fill="#FFFFFF" fill-rule="nonzero">
            <g id="nav/active">
                <path d="M19.25,0 C14.2872941,0 10.25,4.03729412 10.25,9 C10.25,13.9627059 14.2872941,18 19.25,18 C24.2127059,18 28.25,13.9627059 28.25,9 C28.25,4.03729412 24.2127059,0 19.25,0 Z M20.5304449,10.6666485 L14.57,13.68 L17.9693382,8.05335152 L23.93,5.04 L20.5304449,10.6666485 Z M19.25,10.08 C19.8464116,10.08 20.33,9.59641157 20.33,9 C20.33,8.40358843 19.8464116,7.92 19.25,7.92 C18.6535884,7.92 18.17,8.40358843 18.17,9 C18.17,9.59641157 18.6535884,10.08 19.25,10.08 Z" id="Shape"></path>
            </g>
        </g>
    </g>
</svg>