<svg xmlns="http://www.w3.org/2000/svg" xmlns:xlink="http://www.w3.org/1999/xlink" xml:space="preserve" version="1.1" style="shape-rendering:geometricPrecision;text-rendering:geometricPrecision;image-rendering:optimizeQuality;" viewBox="0 0 333 416.25" x="0px" y="0px" fill-rule="evenodd" clip-rule="evenodd"><defs><style type="text/css">
   
    .fil0 {fill:white;fill-rule:nonzero}
   
  </style></defs><g><path class="fil0" d="M223 204l58 58c5,5 5,14 0,19 -5,5 -14,5 -19,0l-58 -58c-17,13 -38,20 -58,20l0 0 0 0 0 0c-25,0 -50,-10 -69,-29 -19,-18 -28,-43 -28,-68l0 0 0 0 0 0c0,-25 9,-50 28,-69 19,-19 44,-28 69,-28l0 0 0 0 0 0c25,0 50,9 68,28 19,19 29,44 29,69l0 0 0 0 0 0c0,21 -7,41 -20,58zm-77 -129c-18,0 -36,7 -50,21 -14,14 -21,32 -21,50l0 0c0,18 7,36 21,50 14,13 32,20 50,20l0 0c18,0 36,-7 50,-20 13,-14 20,-32 20,-50l0 0c0,-18 -7,-36 -20,-50 -14,-14 -32,-21 -50,-21l0 0z"/></g></svg>